<svg width="49" height="47" viewBox="0 0 49 47" fill="none" xmlns="http://www.w3.org/2000/svg">
<path d="M24.1548 0C14.1351 0 11.2047 0.0100553 10.635 0.0560224C8.57881 0.222294 7.2993 0.53724 5.90535 1.21238C4.83109 1.73131 3.98386 2.33283 3.14771 3.17604C1.62492 4.71378 0.702017 6.60561 0.367926 8.85441C0.205495 9.94613 0.158242 10.1688 0.148644 15.7452C0.144952 17.604 0.148644 20.0503 0.148644 23.3315C0.148644 33.0708 0.159719 35.9186 0.20771 36.4716C0.373832 38.4181 0.68762 39.6427 1.35211 40.9822C2.62203 43.5463 5.04742 45.4711 7.90472 46.1894C8.89408 46.4372 9.98679 46.5736 11.3896 46.6383C11.984 46.6634 18.0419 46.6814 24.1035 46.6814C30.1652 46.6814 36.2268 46.6742 36.8064 46.6455C38.4307 46.5711 39.3739 46.4479 40.4168 46.1858C41.8335 45.8323 43.1539 45.1823 44.2857 44.281C45.4175 43.3798 46.3334 42.2491 46.9694 40.9678C47.621 39.6606 47.9514 38.3893 48.1009 36.5445C48.1333 36.1423 48.147 29.7296 48.147 23.3254C48.147 16.9202 48.1322 10.5193 48.0998 10.1171C47.9484 8.24247 47.618 6.98197 46.9454 5.64964C46.3935 4.559 45.7807 3.74452 44.891 2.91173C43.3036 1.43647 41.3618 0.538677 39.0475 0.214034C37.9264 0.0563815 37.7031 0.00969618 31.9663 0H24.1548Z" fill="url(#paint0_radial_301_17)"/>
<path d="M24.1548 0C14.1351 0 11.2047 0.0100553 10.635 0.0560224C8.57881 0.222294 7.2993 0.53724 5.90535 1.21238C4.83109 1.73131 3.98386 2.33283 3.14771 3.17604C1.62492 4.71378 0.702017 6.60561 0.367926 8.85441C0.205495 9.94613 0.158242 10.1688 0.148644 15.7452C0.144952 17.604 0.148644 20.0503 0.148644 23.3315C0.148644 33.0708 0.159719 35.9186 0.20771 36.4716C0.373832 38.4181 0.68762 39.6427 1.35211 40.9822C2.62203 43.5463 5.04742 45.4711 7.90472 46.1894C8.89408 46.4372 9.98679 46.5736 11.3896 46.6383C11.984 46.6634 18.0419 46.6814 24.1035 46.6814C30.1652 46.6814 36.2268 46.6742 36.8064 46.6455C38.4307 46.5711 39.3739 46.4479 40.4168 46.1858C41.8335 45.8323 43.1539 45.1823 44.2857 44.281C45.4175 43.3798 46.3334 42.2491 46.9694 40.9678C47.621 39.6606 47.9514 38.3893 48.1009 36.5445C48.1333 36.1423 48.147 29.7296 48.147 23.3254C48.147 16.9202 48.1322 10.5193 48.0998 10.1171C47.9484 8.24247 47.618 6.98197 46.9454 5.64964C46.3935 4.559 45.7807 3.74452 44.891 2.91173C43.3036 1.43647 41.3618 0.538677 39.0475 0.214034C37.9264 0.0563815 37.7031 0.00969618 31.9663 0H24.1548Z" fill="url(#paint1_radial_301_17)"/>
<path d="M24.1437 6.10501C19.3314 6.10501 18.7274 6.12548 16.8373 6.20916C14.9509 6.29319 13.6633 6.58372 12.5366 7.00999C11.3711 7.45027 10.3825 8.03922 9.3976 8.99771C8.41194 9.95583 7.80651 10.9175 7.35245 12.0509C6.91314 13.1473 6.61412 14.4003 6.52922 16.2346C6.44505 18.0733 6.4229 18.6612 6.4229 23.3427C6.4229 28.0241 6.44431 28.6098 6.52995 30.4485C6.61671 32.2836 6.91536 33.5362 7.35318 34.6323C7.80615 35.766 8.41157 36.7277 9.39686 37.6858C10.3814 38.6447 11.37 39.2351 12.5347 39.6753C13.6622 40.1016 14.9502 40.3921 16.8362 40.4762C18.7263 40.5599 19.3299 40.5803 24.1419 40.5803C28.9547 40.5803 29.5568 40.5599 31.4469 40.4762C33.3333 40.3921 34.6224 40.1016 35.7498 39.6753C36.9149 39.2351 37.902 38.6447 38.8866 37.6858C39.8722 36.7277 40.4777 35.766 40.9317 34.6326C41.3673 33.5362 41.6664 32.2833 41.755 30.4489C41.8399 28.6102 41.862 28.0241 41.862 23.3427C41.862 18.6612 41.8399 18.0737 41.755 16.235C41.6664 14.3999 41.3673 13.1473 40.9317 12.0513C40.4777 10.9175 39.8722 9.95583 38.8866 8.99771C37.9009 8.03886 36.9153 7.44991 35.7487 7.00999C34.6191 6.58372 33.3307 6.29319 31.4443 6.20916C29.5542 6.12548 28.9524 6.10501 24.1386 6.10501H24.1437ZM22.5541 9.21138C23.0259 9.21066 23.5524 9.21138 24.1437 9.21138C28.8749 9.21138 29.4357 9.2279 31.304 9.3105C33.0317 9.38735 33.9693 9.66818 34.594 9.90412C35.4209 10.2166 36.0104 10.59 36.6303 11.1934C37.2505 11.7967 37.6344 12.3713 37.9563 13.1757C38.1988 13.7826 38.4879 14.6948 38.5665 16.3754C38.6514 18.1926 38.6699 18.7384 38.6699 23.3387C38.6699 27.939 38.6514 28.4849 38.5665 30.302C38.4875 31.9827 38.1988 32.8948 37.9563 33.5018C37.6351 34.3062 37.2505 34.879 36.6303 35.4819C36.0101 36.0852 35.4213 36.4587 34.594 36.7712C33.9701 37.0082 33.0317 37.2883 31.304 37.3651C29.436 37.4477 28.8749 37.4657 24.1437 37.4657C19.4122 37.4657 18.8515 37.4477 16.9835 37.3651C15.2558 37.2876 14.3182 37.0067 13.6932 36.7708C12.8662 36.4584 12.2756 36.0849 11.6554 35.4816C11.0352 34.8782 10.6513 34.3051 10.3294 33.5003C10.0868 32.8934 9.79777 31.9812 9.71914 30.3006C9.63423 28.4834 9.61725 27.9376 9.61725 23.3344C9.61725 18.7312 9.63423 18.1882 9.71914 16.3711C9.79814 14.6904 10.0868 13.7783 10.3294 13.1707C10.6505 12.3662 11.0352 11.7916 11.6554 11.1883C12.2756 10.585 12.8662 10.2115 13.6932 9.89837C14.3178 9.66135 15.2558 9.38124 16.9835 9.30403C18.6181 9.23221 19.2516 9.21066 22.5541 9.20707V9.21138ZM33.6024 12.0735C33.1818 12.0735 32.7707 12.1949 32.421 12.4222C32.0713 12.6495 31.7987 12.9726 31.6378 13.3506C31.4769 13.7287 31.4348 14.1446 31.5169 14.5459C31.599 14.9472 31.8016 15.3157 32.0991 15.605C32.3965 15.8942 32.7755 16.0912 33.188 16.1709C33.6005 16.2507 34.0281 16.2096 34.4166 16.0529C34.8052 15.8963 35.1372 15.631 35.3708 15.2908C35.6043 14.9505 35.7289 14.5505 35.7288 14.1413C35.7288 12.9994 34.7763 12.0728 33.6024 12.0728V12.0735ZM24.1437 14.4904C19.1184 14.4904 15.0439 18.454 15.0439 23.3427C15.0439 28.2313 19.1184 32.1931 24.1437 32.1931C29.1691 32.1931 33.2425 28.2313 33.2425 23.3427C33.2425 18.454 29.1688 14.4904 24.1434 14.4904H24.1437ZM24.1437 17.5968C27.4057 17.5968 30.0503 20.1691 30.0503 23.3427C30.0503 26.5158 27.4057 29.0886 24.1437 29.0886C20.8815 29.0886 18.2372 26.5158 18.2372 23.3427C18.2372 20.1691 20.8815 17.5968 24.1437 17.5968V17.5968Z" fill="white"/>
<defs>
<radialGradient id="paint0_radial_301_17" cx="0" cy="0" r="1" gradientUnits="userSpaceOnUse" gradientTransform="translate(12.8971 50.2768) rotate(-90) scale(46.2647 44.2453)">
<stop stop-color="#FFDD55"/>
<stop offset="0.1" stop-color="#FFDD55"/>
<stop offset="0.5" stop-color="#FF543E"/>
<stop offset="1" stop-color="#C837AB"/>
</radialGradient>
<radialGradient id="paint1_radial_301_17" cx="0" cy="0" r="1" gradientUnits="userSpaceOnUse" gradientTransform="translate(-7.89325 3.36285) rotate(78.3695) scale(20.7033 87.5573)">
<stop stop-color="#3771C8"/>
<stop offset="0.128" stop-color="#3771C8"/>
<stop offset="1" stop-color="#6600FF" stop-opacity="0"/>
</radialGradient>
</defs>
</svg>
